<svg width="447" height="336" viewBox="0 0 447 336" fill="none" xmlns="http://www.w3.org/2000/svg">
<path d="M21.8968 155.707L0 231.86H15.1221L19.9612 214.333H42.221L46.9391 231.86H63.392L41.4951 155.707H21.8968ZM30.9701 174.323H31.454L38.7127 201.52H23.4696L30.9701 174.323Z" fill="#060808"/>
<path d="M109.402 194.872C109.402 192.212 108.797 189.674 107.708 187.498C109.886 186.894 112.426 186.531 114.483 186.531V174.443C109.765 174.443 105.047 177.224 102.385 181.333C98.6351 178.674 93.675 177.224 87.9891 177.224C75.8914 177.224 66.6971 183.872 66.6971 194.872V196.322C66.6971 202.004 69.2376 206.597 73.3509 209.619C68.6327 212.157 66.2132 215.3 66.2132 219.894C66.2132 224.487 68.6327 227.992 72.383 229.322C66.8181 230.168 63.3098 234.036 63.3098 239.113C63.3098 248.663 73.8348 252.531 87.3842 252.531C102.627 252.531 114.604 246.728 114.604 233.674C114.604 224.124 109.039 218.564 97.4253 218.564H82.5451C79.6417 218.564 78.3109 217.113 78.3109 215.058C78.3109 214.091 78.5529 213.366 79.0368 212.641C81.6983 213.608 84.7227 213.971 87.9891 213.971C100.208 213.971 109.402 207.201 109.402 196.322V194.872ZM76.4963 236.816C76.4963 233.674 78.4319 231.74 82.5451 231.74H95.0057C98.5141 231.74 100.813 233.19 100.813 236.454C100.813 240.805 95.6106 242.74 87.3842 242.74C80.2465 242.74 76.4963 240.564 76.4963 236.816ZM81.5773 194.993C81.5773 190.278 83.6339 187.136 87.9891 187.136C92.4652 187.136 94.5218 190.278 94.5218 194.993V196.201C94.5218 200.916 92.4652 204.059 87.9891 204.059C83.6339 204.059 81.5773 200.916 81.5773 196.201V194.993Z" fill="#060808"/>
<path d="M152.218 178.553C150.888 177.828 149.194 177.586 147.137 177.586C141.21 177.586 136.612 180.246 134.556 186.773V178.312H119.071V231.86H134.556V204.542C134.556 195.597 138.306 191.729 145.444 191.729C147.621 191.729 149.315 191.971 151.493 192.575L152.218 178.553Z" fill="#060808"/>
<path d="M156.994 178.312V231.86H172.479V178.312H156.994ZM156.994 171.784H172.479V156.916H156.994V171.784Z" fill="#060808"/>
<path d="M196.687 218.806V168.762H203.462C213.745 168.762 219.068 173.476 219.068 188.224V199.344C219.068 214.091 213.745 218.806 203.462 218.806H196.687ZM180.355 231.86H204.913C226.084 231.86 235.642 219.289 235.642 195.96V191.608C235.642 168.279 226.084 155.707 204.913 155.707H180.355V231.86Z" fill="#060808"/>
<path d="M243.195 178.312V231.86H258.68V178.312H243.195ZM243.195 171.784H258.68V156.916H243.195V171.784Z" fill="#060808"/>
<path d="M309.019 194.872C309.019 192.212 308.414 189.674 307.325 187.498C309.503 186.894 312.043 186.531 314.1 186.531V174.443C309.382 174.443 304.664 177.224 302.002 181.333C298.252 178.674 293.292 177.224 287.606 177.224C275.508 177.224 266.314 183.872 266.314 194.872V196.322C266.314 202.004 268.855 206.597 272.968 209.619C268.25 212.157 265.83 215.3 265.83 219.894C265.83 224.487 268.25 227.992 272 229.322C266.435 230.168 262.927 234.036 262.927 239.113C262.927 248.663 273.452 252.531 287.001 252.531C302.244 252.531 314.221 246.728 314.221 233.674C314.221 224.124 308.656 218.564 297.042 218.564H282.162C279.259 218.564 277.928 217.113 277.928 215.058C277.928 214.091 278.17 213.366 278.654 212.641C281.315 213.608 284.34 213.971 287.606 213.971C299.825 213.971 309.019 207.201 309.019 196.322V194.872ZM276.113 236.816C276.113 233.674 278.049 231.74 282.162 231.74H294.623C298.131 231.74 300.43 233.19 300.43 236.454C300.43 240.805 295.228 242.74 287.001 242.74C279.863 242.74 276.113 240.564 276.113 236.816ZM281.194 194.993C281.194 190.278 283.251 187.136 287.606 187.136C292.082 187.136 294.139 190.278 294.139 194.993V196.201C294.139 200.916 292.082 204.059 287.606 204.059C283.251 204.059 281.194 200.916 281.194 196.201V194.993Z" fill="#060808"/>
<path d="M318.688 178.312V231.86H334.173V178.312H318.688ZM318.688 171.784H334.173V156.916H318.688V171.784Z" fill="#060808"/>
<path d="M344.831 217.96C344.831 228.718 351.364 232.707 359.227 232.707C364.308 232.707 368.421 231.498 372.535 228.718V217.96C369.268 219.531 367.212 220.256 364.792 220.256C361.647 220.256 360.074 218.564 360.074 214.938V189.191H371.204V178.312H360.074V163.685H350.759L349.065 170.817C347.855 175.773 346.162 178.312 341.081 179.399L338.782 179.883V189.191H344.831V217.96Z" fill="#060808"/>
<path d="M404.356 211.432C404.356 217.597 400.969 221.586 395.525 221.586C392.259 221.586 390.323 220.014 390.323 216.872C390.323 213.487 392.501 211.916 395.767 210.586L404.356 206.718V211.432ZM419.237 197.168C419.237 183.993 412.704 177.224 398.549 177.224C384.516 177.224 377.499 185.322 377.499 196.443V198.015H391.291V196.443C391.291 191.85 393.468 189.07 397.945 189.07C402.663 189.07 404.356 191.971 404.356 196.443V197.652L388.992 203.333C382.822 205.751 375.564 209.135 375.564 218.806C375.564 227.025 381.008 232.586 390.444 232.586C397.461 232.586 402.784 229.08 404.961 224.366C406.171 230.168 410.768 232.586 416.091 232.586C419.6 232.586 422.14 231.619 424.439 230.168V220.861C423.229 221.223 422.503 221.344 421.535 221.344C419.962 221.344 419.237 220.498 419.237 218.806V197.168Z" fill="#060808"/>
<path d="M429.505 155.707V231.86H444.99V155.707H429.505Z" fill="#060808"/>
<path fill-rule="evenodd" clip-rule="evenodd" d="M172.239 49.1707C172.239 22.0145 194.271 0 221.45 0C248.628 0 270.661 22.0145 270.661 49.1707V131.122L221.45 81.9512L250.156 53.2683L221.45 24.5854L192.743 53.2683L221.45 81.9512L172.239 131.122V49.1707Z" fill="#D7B452"/>
<path d="M118.998 320.178H113V277H142.991V281.935H118.998V296.259H137.83V301.193H118.998V320.178Z" fill="black"/>
<path d="M148.545 283.442V277H154.543V283.442H148.545ZM148.684 290.227H154.473V320.178H148.684V290.227Z" fill="black"/>
<path d="M168.163 302.975V320.178H162.375V290.227H168.163V295.573C168.907 293.746 170.209 292.261 172.069 291.118C173.929 289.976 175.998 289.405 178.277 289.405C182.229 289.405 185.065 290.57 186.786 292.9C188.553 295.231 189.436 298.132 189.436 301.604V320.178H183.647V302.084C183.647 299.617 183.019 297.652 181.764 296.19C180.555 294.682 178.765 293.928 176.394 293.928C174.115 293.928 172.162 294.751 170.535 296.396C168.954 298.041 168.163 300.234 168.163 302.975Z" fill="black"/>
<path d="M215.946 306.813V305.374L209.111 306.813C206.74 307.316 204.833 307.91 203.392 308.595C201.951 309.28 201.23 310.537 201.23 312.364C201.23 313.644 201.672 314.718 202.555 315.586C203.438 316.408 204.74 316.819 206.461 316.819C209.111 316.819 211.343 315.906 213.156 314.078C215.016 312.25 215.946 309.829 215.946 306.813ZM221.526 300.85V314.283C221.526 315.06 221.735 315.654 222.154 316.065C222.572 316.431 223.153 316.614 223.897 316.614C224.223 316.614 224.641 316.568 225.153 316.477C225.664 316.34 226.129 316.157 226.548 315.928V319.012C226.036 319.515 225.409 319.926 224.665 320.246C223.967 320.612 223.037 320.794 221.875 320.794C220.294 320.794 218.992 320.269 217.969 319.218C216.946 318.121 216.342 316.682 216.156 314.9C215.319 316.637 213.9 318.099 211.901 319.287C209.902 320.429 207.67 321 205.205 321C202.276 321 199.905 320.269 198.091 318.807C196.324 317.299 195.441 315.266 195.441 312.707C195.441 309.874 196.58 307.773 198.858 306.402C201.137 305.031 204.089 303.98 207.716 303.249L215.946 301.604V300.439C215.946 298.383 215.365 296.761 214.203 295.573C213.04 294.385 211.39 293.791 209.251 293.791C207.065 293.791 205.345 294.362 204.089 295.505C202.88 296.647 202.044 298.086 201.579 299.822L196.417 299.137C197.022 296.35 198.417 294.043 200.602 292.215C202.834 290.342 205.74 289.405 209.32 289.405C213.133 289.405 216.109 290.364 218.248 292.283C220.433 294.202 221.526 297.058 221.526 300.85Z" fill="black"/>
<path d="M236.888 302.975V320.178H231.099V290.227H236.888V295.573C237.632 293.746 238.934 292.261 240.794 291.118C242.654 289.976 244.723 289.405 247.001 289.405C250.954 289.405 253.79 290.57 255.511 292.9C257.277 295.231 258.161 298.132 258.161 301.604V320.178H252.372V302.084C252.372 299.617 251.744 297.652 250.489 296.19C249.28 294.682 247.49 293.928 245.118 293.928C242.84 293.928 240.887 294.751 239.26 296.396C237.679 298.041 236.888 300.234 236.888 302.975Z" fill="black"/>
<path d="M263.747 305.237C263.747 300.485 265.189 296.67 268.071 293.791C271.001 290.867 274.767 289.405 279.37 289.405C283.834 289.405 287.252 290.707 289.623 293.312C292.041 295.87 293.413 298.931 293.738 302.495L288.647 302.838C288.414 300.234 287.484 298.109 285.857 296.464C284.276 294.819 282.09 293.997 279.301 293.997C276.464 293.997 274.139 295.025 272.326 297.081C270.559 299.091 269.676 301.81 269.676 305.237C269.676 308.664 270.559 311.405 272.326 313.461C274.139 315.471 276.464 316.477 279.301 316.477C282.09 316.477 284.276 315.631 285.857 313.941C287.484 312.205 288.414 310.034 288.647 307.43L293.738 307.91C293.413 311.519 292.041 314.603 289.623 317.162C287.252 319.721 283.834 321 279.37 321C274.767 321 271.001 319.561 268.071 316.682C265.189 313.804 263.747 309.989 263.747 305.237Z" fill="black"/>
<path d="M323.048 309.555L327.861 310.103C327.117 313.484 325.489 316.157 322.978 318.121C320.514 320.04 317.399 321 313.632 321C309.122 321 305.379 319.606 302.403 316.819C299.427 313.987 297.939 310.263 297.939 305.648C297.939 300.942 299.404 297.058 302.333 293.997C305.309 290.936 308.982 289.405 313.353 289.405C318.189 289.405 321.839 290.89 324.303 293.86C326.768 296.784 328 300.279 328 304.346V306.607H303.728C303.868 309.486 304.891 311.862 306.797 313.735C308.703 315.609 311.005 316.545 313.702 316.545C316.213 316.545 318.236 315.951 319.77 314.763C321.351 313.575 322.444 311.839 323.048 309.555ZM303.868 302.907H322.072C321.979 300.531 321.211 298.406 319.77 296.533C318.375 294.659 316.236 293.723 313.353 293.723C310.61 293.723 308.425 294.637 306.797 296.464C305.17 298.292 304.193 300.439 303.868 302.907Z" fill="black"/>
</svg>
