<svg width="447" height="336" viewBox="0 0 447 336" fill="none" xmlns="http://www.w3.org/2000/svg">
<path d="M21.8968 155.707L0 231.86H15.1221L19.9612 214.333H42.221L46.9391 231.86H63.392L41.4951 155.707H21.8968ZM30.9701 174.323H31.454L38.7127 201.52H23.4696L30.9701 174.323Z" fill="#060808"/>
<path d="M109.402 194.872C109.402 192.212 108.797 189.674 107.708 187.498C109.886 186.894 112.426 186.531 114.483 186.531V174.443C109.765 174.443 105.047 177.224 102.385 181.333C98.6351 178.674 93.675 177.224 87.9891 177.224C75.8914 177.224 66.6971 183.872 66.6971 194.872V196.322C66.6971 202.004 69.2376 206.597 73.3509 209.619C68.6327 212.157 66.2132 215.3 66.2132 219.894C66.2132 224.487 68.6327 227.992 72.383 229.322C66.8181 230.168 63.3098 234.036 63.3098 239.113C63.3098 248.663 73.8348 252.531 87.3842 252.531C102.627 252.531 114.604 246.728 114.604 233.674C114.604 224.124 109.039 218.564 97.4253 218.564H82.5451C79.6417 218.564 78.3109 217.113 78.3109 215.058C78.3109 214.091 78.5529 213.366 79.0368 212.641C81.6983 213.608 84.7227 213.971 87.9891 213.971C100.208 213.971 109.402 207.201 109.402 196.322V194.872ZM76.4963 236.816C76.4963 233.674 78.4319 231.74 82.5451 231.74H95.0057C98.5141 231.74 100.813 233.19 100.813 236.454C100.813 240.805 95.6106 242.74 87.3842 242.74C80.2465 242.74 76.4963 240.564 76.4963 236.816ZM81.5773 194.993C81.5773 190.278 83.6339 187.136 87.9891 187.136C92.4652 187.136 94.5218 190.278 94.5218 194.993V196.201C94.5218 200.916 92.4652 204.059 87.9891 204.059C83.6339 204.059 81.5773 200.916 81.5773 196.201V194.993Z" fill="#060808"/>
<path d="M152.218 178.553C150.888 177.828 149.194 177.586 147.137 177.586C141.21 177.586 136.612 180.246 134.556 186.773V178.312H119.071V231.86H134.556V204.542C134.556 195.597 138.306 191.729 145.444 191.729C147.621 191.729 149.315 191.971 151.493 192.575L152.218 178.553Z" fill="#060808"/>
<path d="M156.994 178.312V231.86H172.479V178.312H156.994ZM156.994 171.784H172.479V156.916H156.994V171.784Z" fill="#060808"/>
<path d="M196.687 218.806V168.762H203.462C213.745 168.762 219.068 173.476 219.068 188.224V199.344C219.068 214.091 213.745 218.806 203.462 218.806H196.687ZM180.355 231.86H204.913C226.084 231.86 235.642 219.289 235.642 195.96V191.608C235.642 168.279 226.084 155.707 204.913 155.707H180.355V231.86Z" fill="#060808"/>
<path d="M243.195 178.312V231.86H258.68V178.312H243.195ZM243.195 171.784H258.68V156.916H243.195V171.784Z" fill="#060808"/>
<path d="M309.019 194.872C309.019 192.212 308.414 189.674 307.325 187.498C309.503 186.894 312.043 186.531 314.1 186.531V174.443C309.382 174.443 304.664 177.224 302.002 181.333C298.252 178.674 293.292 177.224 287.606 177.224C275.508 177.224 266.314 183.872 266.314 194.872V196.322C266.314 202.004 268.855 206.597 272.968 209.619C268.25 212.157 265.83 215.3 265.83 219.894C265.83 224.487 268.25 227.992 272 229.322C266.435 230.168 262.927 234.036 262.927 239.113C262.927 248.663 273.452 252.531 287.001 252.531C302.244 252.531 314.221 246.728 314.221 233.674C314.221 224.124 308.656 218.564 297.042 218.564H282.162C279.259 218.564 277.928 217.113 277.928 215.058C277.928 214.091 278.17 213.366 278.654 212.641C281.315 213.608 284.34 213.971 287.606 213.971C299.825 213.971 309.019 207.201 309.019 196.322V194.872ZM276.113 236.816C276.113 233.674 278.049 231.74 282.162 231.74H294.623C298.131 231.74 300.43 233.19 300.43 236.454C300.43 240.805 295.228 242.74 287.001 242.74C279.863 242.74 276.113 240.564 276.113 236.816ZM281.194 194.993C281.194 190.278 283.251 187.136 287.606 187.136C292.082 187.136 294.139 190.278 294.139 194.993V196.201C294.139 200.916 292.082 204.059 287.606 204.059C283.251 204.059 281.194 200.916 281.194 196.201V194.993Z" fill="#060808"/>
<path d="M318.688 178.312V231.86H334.173V178.312H318.688ZM318.688 171.784H334.173V156.916H318.688V171.784Z" fill="#060808"/>
<path d="M344.831 217.96C344.831 228.718 351.364 232.707 359.227 232.707C364.308 232.707 368.421 231.498 372.535 228.718V217.96C369.268 219.531 367.212 220.256 364.792 220.256C361.647 220.256 360.074 218.564 360.074 214.938V189.191H371.204V178.312H360.074V163.685H350.759L349.065 170.817C347.855 175.773 346.162 178.312 341.081 179.399L338.782 179.883V189.191H344.831V217.96Z" fill="#060808"/>
<path d="M404.356 211.432C404.356 217.597 400.969 221.586 395.525 221.586C392.259 221.586 390.323 220.014 390.323 216.872C390.323 213.487 392.501 211.916 395.767 210.586L404.356 206.718V211.432ZM419.237 197.168C419.237 183.993 412.704 177.224 398.549 177.224C384.516 177.224 377.499 185.322 377.499 196.443V198.015H391.291V196.443C391.291 191.85 393.468 189.07 397.945 189.07C402.663 189.07 404.356 191.971 404.356 196.443V197.652L388.992 203.333C382.822 205.751 375.564 209.135 375.564 218.806C375.564 227.025 381.008 232.586 390.444 232.586C397.461 232.586 402.784 229.08 404.961 224.366C406.171 230.168 410.768 232.586 416.091 232.586C419.6 232.586 422.14 231.619 424.439 230.168V220.861C423.229 221.223 422.503 221.344 421.535 221.344C419.962 221.344 419.237 220.498 419.237 218.806V197.168Z" fill="#060808"/>
<path d="M429.505 155.707V231.86H444.99V155.707H429.505Z" fill="#060808"/>
<path fill-rule="evenodd" clip-rule="evenodd" d="M172.239 49.1707C172.239 22.0145 194.271 0 221.45 0C248.628 0 270.661 22.0145 270.661 49.1707V131.122L221.45 81.9512L250.156 53.2683L221.45 24.5854L192.743 53.2683L221.45 81.9512L172.239 131.122V49.1707Z" fill="#97AD69"/>
</svg>
