<svg width="448" height="336" viewBox="0 0 448 336" fill="none" xmlns="http://www.w3.org/2000/svg">
<path d="M34.1406 118.24C29.2642 118.745 25.3022 119.922 20.5951 122.309C11.181 127.051 4.64537 135.458 1.93628 146.253C0.920366 150.288 0.683321 158.393 1.46218 162.966C3.93423 177.763 13.8224 188.725 28.1467 192.626C30.551 193.299 31.7363 193.4 37.3576 193.4C42.5726 193.4 44.232 193.265 46.1622 192.761C50.0565 191.718 49.7179 192.525 49.7179 184.656C49.7179 180.856 49.6501 177.763 49.5824 177.763C49.5147 177.763 48.8036 178.065 47.9908 178.402C45.8236 179.343 41.6583 180.117 38.7122 180.117C28.0451 180.117 19.7147 173.895 16.8024 163.807C15.7865 160.242 15.6849 152.575 16.6331 149.179C18.5633 142.184 22.5931 137.173 28.5531 134.315C32.3458 132.533 35.4613 131.927 40.0667 132.129C46.1961 132.398 50.937 134.348 54.7974 138.216L56.6261 140.099H65.0242C69.6297 140.099 73.4224 139.998 73.4224 139.897C73.4224 139.124 70.0022 133.373 68.2074 131.154C60.4526 121.536 48.0924 116.862 34.1406 118.24Z" fill="black"/>
<path d="M216.97 118.274C211.146 118.879 204.949 121.132 199.937 124.428C180.228 137.476 177.79 167.035 195.128 183.412C199.7 187.717 205.321 190.844 211.484 192.458C215.921 193.602 224.725 193.938 229.263 193.097C245.416 190.071 257.234 178.2 259.842 162.294C261.467 152.239 259.198 141.982 253.543 133.844C251.173 130.481 245.89 125.538 242.436 123.52C234.816 119.048 226.317 117.265 216.97 118.274ZM229.5 133.239C236.848 135.66 242.47 141.78 244.434 149.38C245.28 152.642 245.348 158.292 244.569 161.722C243.011 168.616 238.609 174.232 232.412 177.258C228.89 179.007 226.249 179.579 221.914 179.579C217.512 179.579 214.939 179.007 211.078 177.124C197.431 170.465 194.146 150.625 204.881 139.258C209.69 134.113 215.243 131.927 222.761 132.163C225.91 132.263 227.197 132.465 229.5 133.239Z" fill="black"/>
<path d="M107.963 155.904V192.559H132.684H157.404V185.497V178.435H140.134H122.863V170.364V162.294H138.779H154.695V155.232V148.17H138.779H122.863V140.771V133.373H140.134H157.404V126.311V119.249H132.684H107.963V155.904Z" fill="black"/>
<path d="M290.319 155.871V192.559H297.769H305.219V179.377V166.161L309.452 166.06L313.685 165.993L323.268 179.276L332.886 192.559H342.029C349.242 192.559 351.104 192.458 350.901 192.122C350.766 191.92 346.228 185.833 340.878 178.671C335.493 171.508 331.023 165.421 330.922 165.186C330.82 164.883 331.125 164.648 331.904 164.513C332.513 164.412 334.308 163.706 335.866 162.966C341.115 160.41 344.873 155.77 346.397 149.918C347.312 146.387 347.278 139.964 346.363 136.097C344.84 129.876 340.674 124.63 335.188 122.007C329.669 119.417 330.177 119.451 309.113 119.317L290.319 119.216V155.871ZM326.418 134.248C328.551 135.256 330.244 136.803 331.159 138.686C331.768 139.931 331.938 140.872 331.938 143.125C331.971 146.421 331.294 148.271 329.398 150.154C326.824 152.743 323.878 153.281 313.177 153.147L305.219 153.046L305.118 143.193L305.05 133.34L314.938 133.44C324.183 133.541 324.962 133.575 326.418 134.248Z" fill="black"/>
<path d="M400.545 119.552C400.545 119.787 376.841 182.908 373.488 191.617L373.116 192.559H381.04H388.93L392.113 183.816L395.296 175.072L410.332 175.14L425.367 175.24L428.449 183.883L431.53 192.559H439.421C443.721 192.559 447.277 192.425 447.277 192.29C447.277 192.155 441.114 175.678 433.596 155.736L419.915 119.417L410.23 119.317C404.202 119.283 400.545 119.35 400.545 119.552ZM415.242 147.665C417.816 154.694 419.915 160.545 419.949 160.679C419.983 160.848 415.614 160.982 410.264 161.016C400.647 161.117 400.511 161.117 400.681 160.444C401.29 158.124 410.196 134.416 410.366 134.617C410.501 134.786 412.702 140.637 415.242 147.665Z" fill="black"/>
<path d="M34.8179 159.099V165.32H48.702H62.5861V178.94V192.559H68.9524H75.2849V172.718V152.878H55.0683H34.8179V159.099Z" fill="black"/>
</svg>
